<svg xmlns="http://www.w3.org/2000/svg" viewBox="0 0 178.85 194.67"><defs><style>.cls-1{fill:#f9b233;}.cls-2{fill:#58666a;}.cls-3{fill:#cbbba0;}.cls-4{fill:#fff;}.cls-5{fill:#a48a7b;}.cls-6{fill:#fee2a7;}.cls-7{fill:#b17f4a;}.cls-8{fill:#ecd8b3;}.cls-9{fill:#3aaa35;}.cls-10{fill:#063;}</style></defs><title>herbataZasób 1</title><g id="Warstwa_2" data-name="Warstwa 2"><g id="Warstwa_1-2" data-name="Warstwa 1"><path class="cls-1" d="M179.16,193.7c0,.39-4,.75-10.4,1-3.22.12-7,.31-11.36.22a47.79,47.79,0,0,1-14-2.15,35.16,35.16,0,0,1-12.28-7.28,48.28,48.28,0,0,1-7.55-8.71c-3.65-5.44-5.06-9.23-4.77-9.38s2.43,3.23,6.37,8.19a56.37,56.37,0,0,0,7.65,7.95,35.89,35.89,0,0,0,11.47,6.57,51.17,51.17,0,0,0,13.22,2.22c4.19.23,8,.25,11.24.39C175.18,193,179.16,193.31,179.16,193.7Z" transform="translate(-0.31 -0.29)"/><path class="cls-1" d="M38.92,144.69c.18.31-1.48,1.76-4.59,3.47a44.22,44.22,0,0,1-5.67,2.56,52.57,52.57,0,0,1-7.35,2.08,51.49,51.49,0,0,1-7.59.92,42.07,42.07,0,0,1-6.22-.17c-3.53-.37-5.63-1.06-5.57-1.42.1-.84,8.65,0,18.82-2.08S38.5,144,38.92,144.69Z" transform="translate(-0.31 -0.29)"/><ellipse class="cls-2" cx="113.4" cy="153.08" rx="56.74" ry="11.66"/><path class="cls-3" d="M145.41,81.72c8.85-2.73,17.82,6.1,17.18,16.29-.38,6-3.75,10.85-8.56,14.26-6,4.25-12.95,6.17-15.82,13.64a3.94,3.94,0,0,1-4.45,2.46q1.4-6.6,2.92-13.17c3.17-3.09,7.07-5.34,11.41-8s7.49-6.15,7-11.49c-.5-5.08-5.49-9.6-10-5.17a3.52,3.52,0,0,1-2.43,1.09Q144,86.67,145.41,81.72Z" transform="translate(-0.31 -0.29)"/><path class="cls-3" d="M145.41,81.72c8.85-2.73,17.82,6.1,17.18,16.29-.38,6-3.75,10.85-8.56,14.26-6,4.25-12.95,6.17-15.82,13.64a3.94,3.94,0,0,1-4.45,2.46q1.4-6.6,2.92-13.17c3.17-3.09,7.07-5.34,11.41-8s7.49-6.15,7-11.49c-.5-5.08-5.49-9.6-10-5.17a3.52,3.52,0,0,1-2.43,1.09Q144,86.67,145.41,81.72Z" transform="translate(-0.31 -0.29)"/><path class="cls-4" d="M147.61,63.57c2.08,4,1.09,8-1.17,11.33a2.57,2.57,0,0,0-4.47.77c-.41,1.38-.81,2.76-1.21,4.14a2,2,0,0,0-.42-1.78c-.47-.62-1-1.22-1.48-1.8,2.48-1.84,4.32-4.12,4.81-6.94,1.46-8.26-16-11.92-21.4-13.47A115.29,115.29,0,0,0,95,51.29,93.2,93.2,0,0,0,67.91,54c-5.35,1.39-25.29,7-18.47,15.91a1.67,1.67,0,0,0-.67.07c-.09-.47-.19-.93-.29-1.4-.58-2.68-4.14-2.12-4.79,0-.8-4.57,1.52-9.3,5.6-12.35,7.29-5.47,17.91-7.69,26.71-9,18.25-2.69,37-.18,54.36,5.83C136.31,55.2,144.43,57.52,147.61,63.57Z" transform="translate(-0.31 -0.29)"/><path class="cls-4" d="M147.61,63.57c2.08,4,1.09,8-1.17,11.33a2.57,2.57,0,0,0-4.47.77c-.41,1.38-.81,2.76-1.21,4.14a2,2,0,0,0-.42-1.78c-.47-.62-1-1.22-1.48-1.8,2.48-1.84,4.32-4.12,4.81-6.94,1.46-8.26-16-11.92-21.4-13.47A115.29,115.29,0,0,0,95,51.29,93.2,93.2,0,0,0,67.91,54c-5.35,1.39-25.29,7-18.47,15.91a1.67,1.67,0,0,0-.67.07c-.09-.47-.19-.93-.29-1.4-.58-2.68-4.14-2.12-4.79,0-.8-4.57,1.52-9.3,5.6-12.35,7.29-5.47,17.91-7.69,26.71-9,18.25-2.69,37-.18,54.36,5.83C136.31,55.2,144.43,57.52,147.61,63.57Z" transform="translate(-0.31 -0.29)"/><path class="cls-3" d="M146.44,74.9a2.24,2.24,0,0,1,.35,2.1c-.47,1.57-.93,3.15-1.38,4.72a13.92,13.92,0,0,0-5.64,3.51,3.66,3.66,0,0,0-1.06,1.86h0c.58-2.11,1.18-4.22,1.78-6.32.49-.34,1-.7,1.45-1.07A21.24,21.24,0,0,0,146.44,74.9Z" transform="translate(-0.31 -0.29)"/><path class="cls-3" d="M146.44,74.9a2.24,2.24,0,0,1,.35,2.1c-.47,1.57-.93,3.15-1.38,4.72a13.92,13.92,0,0,0-5.64,3.51,3.66,3.66,0,0,0-1.06,1.86h0c.58-2.11,1.18-4.22,1.78-6.32.49-.34,1-.7,1.45-1.07A21.24,21.24,0,0,0,146.44,74.9Z" transform="translate(-0.31 -0.29)"/><path class="cls-4" d="M142,75.67a2.57,2.57,0,0,1,4.47-.77,21.24,21.24,0,0,1-4.51,4.8c-.47.37-1,.73-1.45,1.07.09-.32.19-.64.28-1C141.16,78.43,141.56,77.05,142,75.67Z" transform="translate(-0.31 -0.29)"/><path class="cls-4" d="M142,75.67a2.57,2.57,0,0,1,4.47-.77,21.24,21.24,0,0,1-4.51,4.8c-.47.37-1,.73-1.45,1.07.09-.32.19-.64.28-1C141.16,78.43,141.56,77.05,142,75.67Z" transform="translate(-0.31 -0.29)"/><path class="cls-5" d="M122.27,55.82c5.4,1.55,22.86,5.21,21.4,13.47-.49,2.82-2.33,5.1-4.81,6.94-9.74-11.09-26.45-13.55-40.58-14.67-15.82-1.26-31.66,1.77-44.85,10.8q-1.43-.92-2.82-2a2.22,2.22,0,0,0-1.17-.47C42.62,61.08,62.56,55.42,67.91,54A93.2,93.2,0,0,1,95,51.29,115.29,115.29,0,0,1,122.27,55.82Z" transform="translate(-0.31 -0.29)"/><path class="cls-5" d="M122.27,55.82c5.4,1.55,22.86,5.21,21.4,13.47-.49,2.82-2.33,5.1-4.81,6.94-9.74-11.09-26.45-13.55-40.58-14.67-15.82-1.26-31.66,1.77-44.85,10.8q-1.43-.92-2.82-2a2.22,2.22,0,0,0-1.17-.47C42.62,61.08,62.56,55.42,67.91,54A93.2,93.2,0,0,1,95,51.29,115.29,115.29,0,0,1,122.27,55.82Z" transform="translate(-0.31 -0.29)"/><path class="cls-3" d="M145.41,81.72q-1.42,4.95-2.77,9.91a4,4,0,0,1-3.93-4.54,3.66,3.66,0,0,1,1.06-1.86A13.92,13.92,0,0,1,145.41,81.72Z" transform="translate(-0.31 -0.29)"/><path class="cls-3" d="M145.41,81.72q-1.42,4.95-2.77,9.91a4,4,0,0,1-3.93-4.54,3.66,3.66,0,0,1,1.06-1.86A13.92,13.92,0,0,1,145.41,81.72Z" transform="translate(-0.31 -0.29)"/><path class="cls-3" d="M138.71,87.09a4,4,0,0,0,3.93,4.54q-3.19,11.73-6,23.57a23.59,23.59,0,0,0-5.71,8.71,4.83,4.83,0,0,0-.2.69l-1.25-.27q4-18.73,9.18-37.24Z" transform="translate(-0.31 -0.29)"/><path class="cls-3" d="M138.71,87.09a4,4,0,0,0,3.93,4.54q-3.19,11.73-6,23.57a23.59,23.59,0,0,0-5.71,8.71,4.83,4.83,0,0,0-.2.69l-1.25-.27q4-18.73,9.18-37.24Z" transform="translate(-0.31 -0.29)"/><path class="cls-4" d="M140.34,78a2,2,0,0,1,.42,1.78,2.74,2.74,0,0,1-4.74.74c-.37-.5-.76-1-1.16-1.42l3.32.16q-.63-.9-1.35-1.74c.71-.41,1.39-.86,2-1.32C139.38,76.81,139.87,77.41,140.34,78Z" transform="translate(-0.31 -0.29)"/><path class="cls-4" d="M140.34,78a2,2,0,0,1,.42,1.78,2.74,2.74,0,0,1-4.74.74c-.37-.5-.76-1-1.16-1.42l3.32.16q-.63-.9-1.35-1.74c.71-.41,1.39-.86,2-1.32C139.38,76.81,139.87,77.41,140.34,78Z" transform="translate(-0.31 -0.29)"/><path class="cls-4" d="M140.76,79.81c-.09.32-.19.64-.28,1-12.48,8.77-30,8-44.57,7.58-16-.53-32.44-3.13-45.9-12.27-.16-.83-.32-1.66-.49-2.48a2.65,2.65,0,0,0,.08-3.44,1.53,1.53,0,0,1-.16-.22,2.22,2.22,0,0,1,1.17.47q1.39,1,2.82,2l-.89.62c-2.6,1.85-.11,6.19,2.52,4.32q1.44-1,2.94-2l.7,0c12.14,6.12,26,7.75,39.67,8,8.12.17,16.47.3,24.49-1.13a50.42,50.42,0,0,0,10.94-3.21l1.06.06c.4.45.79.92,1.16,1.42A2.74,2.74,0,0,0,140.76,79.81Z" transform="translate(-0.31 -0.29)"/><path class="cls-4" d="M140.76,79.81c-.09.32-.19.64-.28,1-12.48,8.77-30,8-44.57,7.58-16-.53-32.44-3.13-45.9-12.27-.16-.83-.32-1.66-.49-2.48a2.65,2.65,0,0,0,.08-3.44,1.53,1.53,0,0,1-.16-.22,2.22,2.22,0,0,1,1.17.47q1.39,1,2.82,2l-.89.62c-2.6,1.85-.11,6.19,2.52,4.32q1.44-1,2.94-2l.7,0c12.14,6.12,26,7.75,39.67,8,8.12.17,16.47.3,24.49-1.13a50.42,50.42,0,0,0,10.94-3.21l1.06.06c.4.45.79.92,1.16,1.42A2.74,2.74,0,0,0,140.76,79.81Z" transform="translate(-0.31 -0.29)"/><path class="cls-6" d="M140.48,80.77c-.6,2.1-1.2,4.21-1.78,6.32q-5.13,18.5-9.18,37.24-3,13.67-5.34,27.44c-9.63,7.61-22.69,9.55-34.65,9.28S65,156.93,57.47,147A398.85,398.85,0,0,0,50,76.08c13.46,9.14,29.87,11.74,45.9,12.27C110.43,88.82,128,89.54,140.48,80.77Z" transform="translate(-0.31 -0.29)"/><path class="cls-6" d="M140.48,80.77c-.6,2.1-1.2,4.21-1.78,6.32q-5.13,18.5-9.18,37.24-3,13.67-5.34,27.44c-9.63,7.61-22.69,9.55-34.65,9.28S65,156.93,57.47,147A398.85,398.85,0,0,0,50,76.08c13.46,9.14,29.87,11.74,45.9,12.27C110.43,88.82,128,89.54,140.48,80.77Z" transform="translate(-0.31 -0.29)"/><path class="cls-4" d="M138.18,79.29l-3.32-.16c-.11-.13-.22-.26-.34-.38.79-.37,1.57-.77,2.31-1.2Q137.55,78.39,138.18,79.29Z" transform="translate(-0.31 -0.29)"/><path class="cls-4" d="M138.18,79.29l-3.32-.16c-.11-.13-.22-.26-.34-.38.79-.37,1.57-.77,2.31-1.2Q137.55,78.39,138.18,79.29Z" transform="translate(-0.31 -0.29)"/><path class="cls-7" d="M138.86,76.23c-.64.46-1.32.91-2,1.32a29.94,29.94,0,0,0-9.43-7.25c-23.28-7.76-50.33-10.82-71.65,3.48-.78-.45-1.56-.92-2.32-1.42,13.19-9,29-12.06,44.85-10.8C112.41,62.68,129.12,65.14,138.86,76.23Z" transform="translate(-0.31 -0.29)"/><path class="cls-7" d="M138.86,76.23c-.64.46-1.32.91-2,1.32a29.94,29.94,0,0,0-9.43-7.25c-23.28-7.76-50.33-10.82-71.65,3.48-.78-.45-1.56-.92-2.32-1.42,13.19-9,29-12.06,44.85-10.8C112.41,62.68,129.12,65.14,138.86,76.23Z" transform="translate(-0.31 -0.29)"/><path class="cls-7" d="M136.83,77.55c-.74.43-1.52.83-2.31,1.2-4.87-5.34-11.24-7.35-18.28-9.12a106.67,106.67,0,0,0-21.08-3.27c-13.09-.61-25.78,2-36.87,8.81-.86-.44-1.71-.9-2.54-1.39,21.32-14.3,48.37-11.24,71.65-3.48A29.94,29.94,0,0,1,136.83,77.55Z" transform="translate(-0.31 -0.29)"/><path class="cls-7" d="M136.83,77.55c-.74.43-1.52.83-2.31,1.2-4.87-5.34-11.24-7.35-18.28-9.12a106.67,106.67,0,0,0-21.08-3.27c-13.09-.61-25.78,2-36.87,8.81-.86-.44-1.71-.9-2.54-1.39,21.32-14.3,48.37-11.24,71.65-3.48A29.94,29.94,0,0,1,136.83,77.55Z" transform="translate(-0.31 -0.29)"/><path class="cls-8" d="M134.86,79.13l-1.06-.06.72-.32C134.64,78.87,134.75,79,134.86,79.13Z" transform="translate(-0.31 -0.29)"/><path class="cls-8" d="M134.86,79.13l-1.06-.06.72-.32C134.64,78.87,134.75,79,134.86,79.13Z" transform="translate(-0.31 -0.29)"/><path class="cls-3" d="M136.68,115.2q-1.53,6.57-2.92,13.17c-1.83-.29-3.39-1.7-3-3.77a4.83,4.83,0,0,1,.2-.69A23.59,23.59,0,0,1,136.68,115.2Z" transform="translate(-0.31 -0.29)"/><path class="cls-3" d="M136.68,115.2q-1.53,6.57-2.92,13.17c-1.83-.29-3.39-1.7-3-3.77a4.83,4.83,0,0,1,.2-.69A23.59,23.59,0,0,1,136.68,115.2Z" transform="translate(-0.31 -0.29)"/><path class="cls-7" d="M134.52,78.75l-.72.32L58.7,75.38l-.41-.21c11.09-6.81,23.78-9.42,36.87-8.81a106.67,106.67,0,0,1,21.08,3.27C123.28,71.4,129.65,73.41,134.52,78.75Z" transform="translate(-0.31 -0.29)"/><path class="cls-7" d="M134.52,78.75l-.72.32L58.7,75.38l-.41-.21c11.09-6.81,23.78-9.42,36.87-8.81a106.67,106.67,0,0,1,21.08,3.27C123.28,71.4,129.65,73.41,134.52,78.75Z" transform="translate(-0.31 -0.29)"/><path class="cls-7" d="M58.7,75.38l75.1,3.69a50.42,50.42,0,0,1-10.94,3.21c-8,1.43-16.37,1.3-24.49,1.13C84.71,83.13,70.84,81.5,58.7,75.38Z" transform="translate(-0.31 -0.29)"/><path class="cls-7" d="M58.7,75.38l75.1,3.69a50.42,50.42,0,0,1-10.94,3.21c-8,1.43-16.37,1.3-24.49,1.13C84.71,83.13,70.84,81.5,58.7,75.38Z" transform="translate(-0.31 -0.29)"/><path class="cls-3" d="M129.52,124.33l1.25.27c-.4,2.07,1.16,3.48,3,3.77q-2.59,12.23-4.73,24.55a2.73,2.73,0,0,0-4.34-1.56l-.51.41Q126.57,138,129.52,124.33Z" transform="translate(-0.31 -0.29)"/><path class="cls-3" d="M129.52,124.33l1.25.27c-.4,2.07,1.16,3.48,3,3.77q-2.59,12.23-4.73,24.55a2.73,2.73,0,0,0-4.34-1.56l-.51.41Q126.57,138,129.52,124.33Z" transform="translate(-0.31 -0.29)"/><path class="cls-8" d="M129,152.92a2,2,0,0,1-.6,1.79,2.32,2.32,0,0,0,.48-1.1Z" transform="translate(-0.31 -0.29)"/><path class="cls-8" d="M129,152.92a2,2,0,0,1-.6,1.79,2.32,2.32,0,0,0,.48-1.1Z" transform="translate(-0.31 -0.29)"/><path class="cls-3" d="M129,152.92l-.12.69a2.32,2.32,0,0,1-.48,1.1,1.9,1.9,0,0,1-.21.19l-.27.22a2.7,2.7,0,0,1-3.86-2.84l.09-.51.51-.41A2.73,2.73,0,0,1,129,152.92Z" transform="translate(-0.31 -0.29)"/><path class="cls-3" d="M129,152.92l-.12.69a2.32,2.32,0,0,1-.48,1.1,1.9,1.9,0,0,1-.21.19l-.27.22a2.7,2.7,0,0,1-3.86-2.84l.09-.51.51-.41A2.73,2.73,0,0,1,129,152.92Z" transform="translate(-0.31 -0.29)"/><path class="cls-8" d="M128.22,154.9a1.9,1.9,0,0,0,.21-.19,1.87,1.87,0,0,1-.48.41Z" transform="translate(-0.31 -0.29)"/><path class="cls-8" d="M128.22,154.9a1.9,1.9,0,0,0,.21-.19,1.87,1.87,0,0,1-.48.41Z" transform="translate(-0.31 -0.29)"/><path class="cls-3" d="M124.09,152.28a2.7,2.7,0,0,0,3.86,2.84c-11.16,9-26.21,11.55-40.26,10.87C74,165.33,61,160.3,52.75,149a2,2,0,0,1-.29-2.11c0,.26,0,.53,0,.79,0,3.21,5,3.22,5,0,0-.23,0-.46,0-.69,7.52,10,20,13.81,32.06,14.08s25-1.67,34.65-9.28Z" transform="translate(-0.31 -0.29)"/><path class="cls-3" d="M124.09,152.28a2.7,2.7,0,0,0,3.86,2.84c-11.16,9-26.21,11.55-40.26,10.87C74,165.33,61,160.3,52.75,149a2,2,0,0,1-.29-2.11c0,.26,0,.53,0,.79,0,3.21,5,3.22,5,0,0-.23,0-.46,0-.69,7.52,10,20,13.81,32.06,14.08s25-1.67,34.65-9.28Z" transform="translate(-0.31 -0.29)"/><path class="cls-8" d="M58.7,75.38l-.7,0a1.75,1.75,0,0,1,.29-.18Z" transform="translate(-0.31 -0.29)"/><path class="cls-8" d="M58.7,75.38l-.7,0a1.75,1.75,0,0,1,.29-.18Z" transform="translate(-0.31 -0.29)"/><path class="cls-4" d="M58.29,75.17a1.75,1.75,0,0,0-.29.18l-4.2-.21c.65-.47,1.3-.93,2-1.36C56.58,74.27,57.43,74.73,58.29,75.17Z" transform="translate(-0.31 -0.29)"/><path class="cls-4" d="M58.29,75.17a1.75,1.75,0,0,0-.29.18l-4.2-.21c.65-.47,1.3-.93,2-1.36C56.58,74.27,57.43,74.73,58.29,75.17Z" transform="translate(-0.31 -0.29)"/><path class="cls-4" d="M53.8,75.14l4.2.21q-1.5.91-2.94,2c-2.63,1.87-5.12-2.47-2.52-4.32l.89-.62c.76.5,1.54,1,2.32,1.42C55.1,74.21,54.45,74.67,53.8,75.14Z" transform="translate(-0.31 -0.29)"/><path class="cls-4" d="M53.8,75.14l4.2.21q-1.5.91-2.94,2c-2.63,1.87-5.12-2.47-2.52-4.32l.89-.62c.76.5,1.54,1,2.32,1.42C55.1,74.21,54.45,74.67,53.8,75.14Z" transform="translate(-0.31 -0.29)"/><path class="cls-3" d="M57.48,147.66c0,3.22-5,3.21-5,0,0-.26,0-.53,0-.79a2.74,2.74,0,0,1,4.61-.42c.13.18.26.35.4.52S57.48,147.43,57.48,147.66Z" transform="translate(-0.31 -0.29)"/><path class="cls-3" d="M57.48,147.66c0,3.22-5,3.21-5,0,0-.26,0-.53,0-.79a2.74,2.74,0,0,1,4.61-.42c.13.18.26.35.4.52S57.48,147.43,57.48,147.66Z" transform="translate(-0.31 -0.29)"/><path class="cls-3" d="M57.47,147c-.14-.17-.27-.34-.4-.52a2.74,2.74,0,0,0-4.61.42,393.36,393.36,0,0,0-8.8-76.93,2.65,2.65,0,0,1,0-1.29,11,11,0,0,0,2.37,5,2,2,0,0,0,1.8.84,2.11,2.11,0,0,0,.23.19q.94.7,1.92,1.35A398.85,398.85,0,0,1,57.47,147Z" transform="translate(-0.31 -0.29)"/><path class="cls-3" d="M57.47,147c-.14-.17-.27-.34-.4-.52a2.74,2.74,0,0,0-4.61.42,393.36,393.36,0,0,0-8.8-76.93,2.65,2.65,0,0,1,0-1.29,11,11,0,0,0,2.37,5,2,2,0,0,0,1.8.84,2.11,2.11,0,0,0,.23.19q.94.7,1.92,1.35A398.85,398.85,0,0,1,57.47,147Z" transform="translate(-0.31 -0.29)"/><path class="cls-4" d="M49.52,73.6c.17.82.33,1.65.49,2.48q-1-.64-1.92-1.35a2.11,2.11,0,0,1-.23-.19A2.52,2.52,0,0,0,49.52,73.6Z" transform="translate(-0.31 -0.29)"/><path class="cls-4" d="M49.52,73.6c.17.82.33,1.65.49,2.48q-1-.64-1.92-1.35a2.11,2.11,0,0,1-.23-.19A2.52,2.52,0,0,0,49.52,73.6Z" transform="translate(-0.31 -0.29)"/><path class="cls-4" d="M49.6,70.16a2.65,2.65,0,0,1-.08,3.44c-.24-1.2-.49-2.4-.75-3.59a1.67,1.67,0,0,1,.67-.07A1.53,1.53,0,0,0,49.6,70.16Z" transform="translate(-0.31 -0.29)"/><path class="cls-4" d="M49.6,70.16a2.65,2.65,0,0,1-.08,3.44c-.24-1.2-.49-2.4-.75-3.59a1.67,1.67,0,0,1,.67-.07A1.53,1.53,0,0,0,49.6,70.16Z" transform="translate(-0.31 -0.29)"/><path class="cls-4" d="M48.77,70c.26,1.19.51,2.39.75,3.59a2.52,2.52,0,0,1-1.66.94A2.75,2.75,0,0,1,48.77,70Z" transform="translate(-0.31 -0.29)"/><path class="cls-4" d="M48.77,70c.26,1.19.51,2.39.75,3.59a2.52,2.52,0,0,1-1.66.94A2.75,2.75,0,0,1,48.77,70Z" transform="translate(-0.31 -0.29)"/><path class="cls-4" d="M48.48,68.61c.1.47.2.93.29,1.4a2.75,2.75,0,0,0-.91,4.53,2,2,0,0,1-1.8-.84,11,11,0,0,1-2.37-5C44.34,66.49,47.9,65.93,48.48,68.61Z" transform="translate(-0.31 -0.29)"/><path class="cls-4" d="M48.48,68.61c.1.47.2.93.29,1.4a2.75,2.75,0,0,0-.91,4.53,2,2,0,0,1-1.8-.84,11,11,0,0,1-2.37-5C44.34,66.49,47.9,65.93,48.48,68.61Z" transform="translate(-0.31 -0.29)"/><path class="cls-1" d="M69.6,10.44c.5-.22,2.55,3.2,5.46,8.91.73,1.43,1.51,3,2.33,4.69.41.85.85,1.7,1.28,2.71a12.42,12.42,0,0,1,.94,3.46,9.81,9.81,0,0,1-.4,3.94,13.31,13.31,0,0,1-1.75,3.52,28.68,28.68,0,0,1-2.33,2.92c-.77.88-1.51,1.76-2.22,2.68a25.42,25.42,0,0,0-5.38,11.42,17.77,17.77,0,0,0,1.36,10,13.06,13.06,0,0,0,4.23,5.41c1.34.94,2.31,1.21,2.28,1.52s-1.12.51-3-.16a12.36,12.36,0,0,1-6-5.47,19.24,19.24,0,0,1-2.49-11.78,23.26,23.26,0,0,1,1.93-6.9,32.56,32.56,0,0,1,3.93-6.45c.78-1,1.6-2,2.41-2.87a27.81,27.81,0,0,0,2.09-2.52A7.7,7.7,0,0,0,76,30.52a17.88,17.88,0,0,0-1.59-5.16c-.7-1.75-1.33-3.39-1.9-4.88C70.25,14.48,69.1,10.66,69.6,10.44Z" transform="translate(-0.31 -0.29)"/><path class="cls-1" d="M122.65,15.7c.14.18-.74.89-1.83,2.49a15.14,15.14,0,0,0-2.56,7.55,18.46,18.46,0,0,0,3.23,11.2,27.53,27.53,0,0,0,2.08,2.78c.77.92,1.59,1.73,2.55,2.69a14.75,14.75,0,0,1,1.4,1.65,8.18,8.18,0,0,1,1.08,2.1,11,11,0,0,1,.46,4.6,26.71,26.71,0,0,1-.81,4.2,17.73,17.73,0,0,1-.61,2.06,5.28,5.28,0,0,1-1.46,2.17,5.48,5.48,0,0,1-2.29,1.08,17.45,17.45,0,0,1-2,.32,31,31,0,0,0-3.43.65,33,33,0,0,0-3.19,1c-.5.19-1,.38-1.48.59s-.44.19-.53.29c-.2-.14.39,1.16.8,1.92a25.74,25.74,0,0,0,1.36,2.34,31.74,31.74,0,0,0,5.39,6.25c1.47,1.32,2.36,2,2.25,2.18s-1.17-.21-2.91-1.31a24.91,24.91,0,0,1-6.36-6,25.67,25.67,0,0,1-1.63-2.43c-.27-.43-.51-.89-.76-1.36a6,6,0,0,1-.39-.94,2.56,2.56,0,0,1,0-1.4,2.34,2.34,0,0,1,.81-1.18,4.94,4.94,0,0,1,1-.58c.52-.24,1-.47,1.59-.69a31,31,0,0,1,3.41-1.17,33.07,33.07,0,0,1,3.72-.8,5.85,5.85,0,0,0,2.87-.84,5.79,5.79,0,0,0,1.16-2.82,25.72,25.72,0,0,0,.71-3.77,8.29,8.29,0,0,0-.3-3.42,7.54,7.54,0,0,0-1.84-2.77c-.85-.88-1.82-1.87-2.62-2.88a28.13,28.13,0,0,1-2.21-3.12,19.64,19.64,0,0,1-3-12.78,14.44,14.44,0,0,1,3.68-8C121.44,16,122.57,15.57,122.65,15.7Z" transform="translate(-0.31 -0.29)"/><path class="cls-1" d="M100.87.3c.17.13-.35,1.05-1.17,2.72a31.14,31.14,0,0,0-2.51,7.35,27.27,27.27,0,0,0,0,11.28,47.61,47.61,0,0,0,2.09,6.49,64.6,64.6,0,0,1,2.46,7.28,21.17,21.17,0,0,1,.58,8,13.33,13.33,0,0,1-3.13,7c-1.54,1.82-3.15,3.2-4.37,4.62a9.56,9.56,0,0,0-2.36,4.31,8.52,8.52,0,0,0,.24,4.06,9.64,9.64,0,0,0,1.44,2.84c1.08,1.43,2,2,1.9,2.16s-1.21,0-2.71-1.43a9,9,0,0,1-2.1-3A9.68,9.68,0,0,1,90.54,59a11.35,11.35,0,0,1,2.53-5.48c1.29-1.66,2.87-3.13,4.16-4.78A11,11,0,0,0,99.64,43a19.36,19.36,0,0,0-.58-6.94c-1.21-4.77-3.51-9.28-4.36-13.92A26.92,26.92,0,0,1,95.26,9.9a24.18,24.18,0,0,1,3.5-7.44C99.91.89,100.74.2,100.87.3Z" transform="translate(-0.31 -0.29)"/><path class="cls-9" d="M90.51,154.32c-14,.92-24,14.41-37.43,18.56-9.46,2.92-19.85.88-28.73-3.48s-16.5-10.88-24-17.32" transform="translate(-0.31 -0.29)"/><path class="cls-10" d="M.33,152.08c.12-.15,1.32.64,3.38,2.17s5,3.81,8.7,6.46a81.19,81.19,0,0,0,13.66,8.06,43.33,43.33,0,0,0,18.53,4A29.23,29.23,0,0,0,54.16,171a48.33,48.33,0,0,0,8.28-4.09c5.1-3.12,9.55-6.39,13.66-8.61a32.63,32.63,0,0,1,10.35-3.91,13.63,13.63,0,0,1,3-.26c.69,0,1,.06,1.06.16s-.34.23-1,.41-1.61.34-2.81.75A39.62,39.62,0,0,0,77.11,160c-3.86,2.37-8.12,5.76-13.3,9.1a47.38,47.38,0,0,1-8.7,4.48,31.1,31.1,0,0,1-10.44,2A43.81,43.81,0,0,1,25,171.12a72,72,0,0,1-13.76-8.82c-3.62-2.9-6.36-5.43-8.21-7.22S.2,152.23.33,152.08Z" transform="translate(-0.31 -0.29)"/><path class="cls-9" d="M88,153.87a128.47,128.47,0,0,1-61.84,7.83" transform="translate(-0.31 -0.29)"/><path class="cls-10" d="M26.14,161.7c.09-.86,14.13.74,31.23-1.5s30.31-7.15,30.61-6.33c.13.33-3,2-8.42,4a96.46,96.46,0,0,1-9.67,2.89A117.31,117.31,0,0,1,57.72,163a115.92,115.92,0,0,1-12.35.85,97.69,97.69,0,0,1-10.09-.39C29.55,162.91,26.09,162.05,26.14,161.7Z" transform="translate(-0.31 -0.29)"/><path class="cls-9" d="M82.48,154.94c-6.6,2.93-14.18-.05-20.58-3.38s-13.27-7.16-20.35-5.85c-3.39.63-6.45,2.4-9.61,3.8a47.13,47.13,0,0,1-29.53,2.82" transform="translate(-0.31 -0.29)"/><path class="cls-10" d="M2.41,152.33c0-.22,1.22-.08,3.31.08a58.91,58.91,0,0,0,8.82.07,48.85,48.85,0,0,0,12.69-2.56,57.89,57.89,0,0,0,7.06-3,24.9,24.9,0,0,1,8.43-2.76,21.52,21.52,0,0,1,8.86,1.18A49.57,49.57,0,0,1,59,148.57c2.25,1.17,4.3,2.36,6.25,3.32a43.93,43.93,0,0,0,5.56,2.32,20.3,20.3,0,0,0,8.49,1.14c2-.22,3.14-.62,3.23-.41s-.9.91-3,1.48a18.34,18.34,0,0,1-9.23-.3,39,39,0,0,1-6-2.12c-2.1-.91-4.21-2-6.44-3.12a51.16,51.16,0,0,0-7.05-2.95,19.5,19.5,0,0,0-7.74-1,23.46,23.46,0,0,0-7.52,2.46,54.49,54.49,0,0,1-7.43,3,45,45,0,0,1-13.43,2.09,38.44,38.44,0,0,1-9.06-1C3.46,153,2.37,152.49,2.41,152.33Z" transform="translate(-0.31 -0.29)"/><path class="cls-9" d="M116.91,165.91c5.47,10,13.15,19.57,23.84,23.61,7.16,2.72,15,2.73,22.67,2.71l13.85,0" transform="translate(-0.31 -0.29)"/><path class="cls-10" d="M177.27,192.19c0,.39-4,.75-10.41,1-3.21.12-7,.31-11.35.21a47.5,47.5,0,0,1-14-2.14A35.51,35.51,0,0,1,129.23,184a48.28,48.28,0,0,1-7.55-8.71c-3.65-5.44-5.06-9.23-4.77-9.38s2.42,3.23,6.37,8.19a56.79,56.79,0,0,0,7.64,7.94,35.77,35.77,0,0,0,11.48,6.58,51.6,51.6,0,0,0,13.22,2.22c4.18.23,8,.25,11.24.38C173.29,191.46,177.27,191.8,177.27,192.19Z" transform="translate(-0.31 -0.29)"/><path class="cls-9" d="M116.78,166.54c11.44-.15,23,1.4,33.65,5.5s20.46,10.86,27.33,20" transform="translate(-0.31 -0.29)"/><path class="cls-10" d="M177.76,192c-.36.27-2.77-2.73-7.43-6.68a71.08,71.08,0,0,0-20.4-12,96.94,96.94,0,0,0-23.19-5.5c-6.11-.73-9.95-.9-10-1.32s3.85-.89,10.12-.66a76.37,76.37,0,0,1,24,4.85,60.23,60.23,0,0,1,20.74,13.16C176.16,188.38,178,191.86,177.76,192Z" transform="translate(-0.31 -0.29)"/><path class="cls-9" d="M158.61,185.56c-7.46-.7-14.5-3.77-21-7.43s-12.7-8-19.32-11.46" transform="translate(-0.31 -0.29)"/><path class="cls-10" d="M118.26,166.67c.17-.34,2.59.5,6.23,2.39s8.45,4.82,13.78,7.84a82.63,82.63,0,0,0,14.13,6.51c3.77,1.27,6.24,1.73,6.21,2.15s-2.63.6-6.73-.23a52.91,52.91,0,0,1-15-6c-5.47-3.1-10.07-6.32-13.42-8.59S118.08,167,118.26,166.67Z" transform="translate(-0.31 -0.29)"/><path class="cls-4" d="M57.14,87.16c.38-.41,1.4-.27,2.84.57a17.37,17.37,0,0,1,5.07,4.85,31.8,31.8,0,0,1,4.4,9.29,100.84,100.84,0,0,1,2.81,11.47,91,91,0,0,1,1.59,21.31c-.32,5.5-1.31,8.88-2.46,8.91-2.37,0-4.45-12.95-7.42-28.68-.73-3.93-1.42-7.69-2-11.1a53.65,53.65,0,0,0-2.11-8.35C58.2,90.88,56.29,88.07,57.14,87.16Z" transform="translate(-0.31 -0.29)"/><text x="-0.31" y="-0.29"/></g></g></svg>